<?xml version="1.0" standalone="no"?>
<!DOCTYPE svg PUBLIC "-//W3C//DTD SVG 20010904//EN"
 "http://www.w3.org/TR/2001/REC-SVG-20010904/DTD/svg10.dtd">
<svg version="1.0" xmlns="http://www.w3.org/2000/svg"
 width="1800.000000pt" height="1800.000000pt" viewBox="0 0 1800.000000 1800.000000"
 preserveAspectRatio="xMidYMid meet">
<metadata>
Created by potrace 1.11, written by Peter Selinger 2001-2013
</metadata>
<g transform="translate(0.000000,1800.000000) scale(0.100000,-0.100000)"
fill="#000000" stroke="none">
<path d="M7825 12955 c-60 -30 -171 -83 -245 -119 -74 -36 -234 -113 -355
-172 -121 -58 -269 -130 -330 -159 -60 -29 -177 -85 -260 -125 -82 -40 -208
-100 -280 -135 -233 -112 -377 -181 -550 -265 -198 -96 -503 -243 -860 -415
-66 -32 -203 -98 -305 -148 -102 -49 -225 -109 -275 -132 -49 -23 -155 -74
-235 -113 -340 -164 -454 -218 -600 -289 -85 -42 -213 -104 -285 -138 -71 -34
-197 -95 -280 -135 -82 -40 -208 -100 -280 -135 -71 -34 -197 -95 -280 -135
-149 -72 -309 -149 -540 -260 -66 -32 -192 -93 -280 -135 -88 -43 -218 -106
-290 -140 -305 -147 -510 -247 -513 -250 -4 -3 -28 -106 -35 -150 -3 -16 -20
-97 -37 -180 -18 -82 -34 -159 -36 -170 -2 -11 -8 -40 -14 -65 -5 -25 -12 -56
-14 -70 -2 -14 -9 -45 -15 -70 -5 -25 -12 -56 -15 -70 -2 -14 -12 -59 -20
-100 -16 -73 -54 -255 -62 -295 -2 -11 -17 -83 -33 -160 -16 -77 -32 -151 -35
-165 -2 -14 -11 -56 -20 -95 -8 -38 -13 -71 -12 -72 3 -3 162 100 546 351 190
125 306 201 710 465 107 70 269 177 360 236 91 59 203 133 250 163 47 31 182
119 300 197 118 77 277 181 353 230 75 50 226 149 335 220 109 72 254 167 322
211 186 121 724 473 890 582 80 52 221 145 315 206 233 153 445 292 637 417
90 59 258 168 373 244 116 76 248 163 295 193 47 31 162 106 255 167 94 61
177 115 185 119 8 4 -35 -41 -97 -101 -178 -173 -578 -561 -666 -646 -44 -42
-186 -179 -315 -305 -129 -125 -305 -294 -390 -377 -85 -82 -185 -179 -222
-215 -64 -62 -496 -480 -625 -605 -34 -33 -176 -171 -316 -306 -140 -136 -281
-273 -315 -305 -34 -33 -169 -163 -300 -291 -131 -127 -277 -268 -324 -313
-47 -45 -143 -139 -214 -207 l-128 -125 78 7 c44 4 81 8 84 10 3 1 37 6 76 9
39 4 80 8 90 10 11 2 48 7 84 11 36 3 76 8 90 10 14 2 50 6 80 10 66 7 109 12
170 20 69 9 110 14 170 20 30 3 71 8 90 10 96 13 180 23 250 30 30 3 66 8 80
10 14 3 48 7 75 10 97 10 151 16 230 26 109 13 141 17 205 24 30 4 66 8 80 10
14 2 54 7 90 10 36 4 72 8 80 10 14 2 57 7 175 21 22 2 58 6 80 9 70 7 219 26
245 30 14 2 54 7 90 10 36 4 97 11 135 16 39 5 93 12 120 14 55 5 141 16 167
20 9 2 45 6 80 9 34 3 72 8 83 10 11 2 50 7 87 10 37 4 77 9 90 11 13 2 68 9
123 15 55 6 111 13 125 15 14 2 50 6 80 10 30 3 72 8 93 10 20 3 54 7 75 10
20 2 62 7 92 10 30 3 66 8 80 10 14 2 54 7 90 11 36 3 72 7 80 9 8 1 44 6 80
10 36 3 76 8 90 10 14 2 50 6 80 10 30 3 66 7 80 9 14 3 54 7 90 10 36 4 76 8
90 11 14 2 70 9 125 15 55 6 111 13 125 15 14 2 52 7 85 10 33 4 71 8 85 10
14 2 52 7 85 10 33 4 72 9 88 11 15 2 51 7 80 9 28 3 68 7 87 10 19 2 55 7 80
10 25 3 61 7 80 10 38 5 110 13 175 20 22 2 54 6 70 9 17 2 59 7 95 11 36 4
76 8 90 10 14 2 50 7 80 10 30 3 107 12 170 20 63 8 140 17 170 20 30 3 64 7
75 9 11 2 52 7 90 11 39 4 77 8 85 10 15 2 92 12 180 21 25 3 63 7 85 10 80
11 91 12 160 19 39 4 78 9 87 10 9 2 45 7 80 10 l64 7 207 -134 c114 -73 353
-227 530 -341 177 -114 345 -221 372 -238 28 -16 89 -55 138 -87 48 -31 238
-153 422 -271 184 -118 333 -216 332 -217 -1 -2 -32 -5 -67 -9 -142 -13 -177
-16 -215 -20 -22 -2 -76 -6 -120 -10 -44 -4 -96 -8 -115 -10 -19 -2 -73 -6
-120 -10 -47 -3 -96 -8 -110 -10 -14 -2 -61 -7 -105 -10 -44 -3 -100 -8 -125
-10 -25 -2 -79 -7 -120 -10 -41 -3 -91 -8 -110 -10 -19 -2 -71 -7 -115 -10
-44 -4 -98 -8 -120 -10 -22 -2 -76 -6 -120 -10 -44 -3 -91 -8 -105 -10 -14 -2
-70 -7 -125 -11 -55 -3 -108 -8 -118 -10 -18 -3 -169 -15 -229 -18 -173 -9
425 -11 3105 -11 l3142 1 110 -78 c225 -157 313 -219 417 -292 l107 -76 -31
-67 c-16 -38 -41 -93 -55 -123 -14 -30 -56 -125 -95 -210 -38 -85 -74 -160
-79 -166 -5 -7 -29 -15 -53 -18 -23 -4 -54 -9 -67 -11 -13 -2 -67 -11 -119
-20 -111 -18 -142 -23 -190 -31 -64 -11 -74 -13 -234 -39 -87 -15 -166 -28
-175 -30 -9 -1 -50 -8 -91 -15 -41 -6 -86 -14 -100 -16 -14 -2 -41 -7 -60 -10
-19 -2 -57 -9 -85 -14 -27 -5 -68 -12 -90 -15 -22 -4 -53 -9 -70 -11 -33 -6
-186 -32 -225 -39 -14 -2 -83 -13 -155 -25 -165 -27 -178 -29 -217 -36 -18 -3
-46 -7 -63 -10 -16 -2 -41 -6 -55 -9 -13 -2 -40 -7 -60 -10 -20 -3 -47 -8 -60
-10 -14 -3 -54 -10 -90 -15 -36 -5 -74 -11 -85 -14 -11 -2 -40 -7 -65 -11 -25
-4 -54 -9 -65 -11 -33 -7 -68 -13 -110 -19 -23 -3 -50 -7 -62 -9 -12 -3 -43
-8 -70 -12 -26 -5 -50 -9 -53 -9 -3 -1 -30 -5 -60 -10 -30 -5 -58 -10 -62 -11
-5 -1 -22 -2 -39 -3 -18 0 -28 -5 -24 -11 4 -6 10 -8 14 -5 5 2 57 7 117 11
60 3 127 7 149 9 22 1 90 6 150 9 61 4 133 9 160 11 73 5 208 14 300 20 44 3
114 8 155 10 41 3 102 7 135 10 57 4 175 12 310 20 75 5 220 14 305 20 36 2
106 7 155 10 50 3 117 8 150 10 33 3 96 7 140 10 44 2 122 7 174 10 51 3 114
8 140 10 165 13 251 16 251 8 0 -10 -316 -714 -322 -717 -4 -3 -536 -209 -623
-242 -33 -12 -136 -53 -230 -89 -93 -37 -189 -74 -212 -82 -24 -8 -43 -19 -43
-25 0 -5 3 -7 8 -5 4 3 39 8 77 12 39 3 81 8 95 10 14 2 52 6 85 10 33 3 71 8
85 10 14 2 55 6 92 10 37 3 75 8 85 10 11 2 52 6 92 10 40 3 80 8 89 10 9 1
46 6 82 10 36 3 76 8 90 10 14 2 54 7 90 10 36 3 76 8 90 10 14 2 52 6 86 10
33 3 71 7 85 9 13 3 49 7 80 11 l56 6 38 81 c21 45 50 109 65 142 15 34 42 93
60 131 18 39 76 167 130 285 54 118 112 244 128 280 25 54 483 1060 527 1155
7 17 30 66 51 110 21 44 39 82 39 85 1 3 14 32 29 65 16 33 46 98 67 144 30
65 36 87 27 93 -13 8 -181 97 -418 221 -63 33 -157 82 -208 109 -80 42 -99 48
-135 44 -23 -3 -71 -8 -107 -11 -36 -3 -87 -7 -115 -10 -46 -4 -97 -8 -250
-21 -33 -2 -78 -7 -100 -9 -22 -3 -76 -7 -120 -10 -44 -3 -98 -7 -120 -10 -22
-3 -69 -7 -105 -10 -36 -3 -87 -7 -115 -10 -27 -3 -79 -7 -115 -10 -36 -2 -90
-7 -120 -10 -30 -2 -84 -7 -120 -10 -36 -3 -85 -8 -110 -10 -25 -2 -79 -7
-120 -10 -41 -3 -91 -8 -110 -10 -19 -2 -71 -7 -115 -10 -44 -3 -98 -8 -120
-10 -22 -2 -74 -7 -115 -10 -41 -3 -95 -7 -120 -10 -25 -2 -74 -7 -110 -10
-36 -3 -85 -8 -110 -10 -25 -2 -81 -7 -125 -10 -44 -4 -96 -8 -115 -10 -35 -4
-115 -12 -220 -20 -30 -2 -80 -7 -110 -9 -30 -3 -86 -8 -125 -11 -38 -3 -90
-8 -115 -10 -65 -6 -154 -14 -240 -21 -41 -3 -88 -7 -105 -9 -42 -5 -236 -21
-366 -31 l-75 -5 -201 208 c-111 114 -232 240 -269 280 -79 82 -201 209 -490
508 -111 116 -233 242 -271 281 -37 40 -152 159 -254 265 -103 107 -202 210
-220 229 l-34 36 -350 -2 c-192 -1 -811 -5 -1375 -8 -2430 -15 -2967 -18
-3347 -20 l-401 -2 14 26 c8 14 65 99 127 190 62 91 157 230 212 310 54 80
122 179 150 220 28 41 124 181 212 310 88 129 206 303 262 385 57 83 145 213
197 290 53 77 128 187 167 245 40 58 125 182 189 276 64 94 145 214 180 265
36 52 167 245 293 429 125 184 256 376 290 425 67 98 78 115 73 114 -2 0 -52
-25 -113 -54z"/>
</g>
</svg>
